<svg xmlns="http://www.w3.org/2000/svg" viewBox="0 0 41.77 98.01"><defs><style>.cls-1{fill:#fff;}</style></defs><g id="Layer_2" data-name="Layer 2"><g id="Alternative_Logos" data-name="Alternative Logos"><g id="_2_Column" data-name="2 Column"><path class="cls-1" d="M39.26,38.62c-3.37.13-6.74.28-10.11.39-1.54.05-3.08.05-4.66.07,0-.33,0-.64,0-.95q.35-6.75.7-13.48c.21-4,.46-8.08.68-12.12.18-3.39.36-6.78.51-10.16A2,2,0,0,0,24.77.06a2.06,2.06,0,0,0-2.51,1.41c-.81,2-1.58,4-2.38,6q-3.14,7.82-6.28,15.62Q10.81,30,8,37,5.62,42.88,3.22,48.79c-1,2.53-2.05,5.07-3,7.62a2,2,0,0,0,2,2.92c4.76-.13,9.51-.33,14.26-.5.88,0,.93,0,.88.9-.16,2.92-.33,5.84-.49,8.76q-.59,11-1.16,21.93c-.1,1.81-.22,3.63-.29,5.44a1.9,1.9,0,0,0,1.21,1.93,2.09,2.09,0,0,0,2.94-1.38q2.61-6.42,5.2-12.85,4.48-11.18,9-22.35c2.59-6.45,5.21-12.91,7.81-19.36C42.27,40,41.27,38.55,39.26,38.62ZM15.92,32,10.67,45.64a1.23,1.23,0,0,1-1.14.79,1.15,1.15,0,0,1-.44-.09,1.21,1.21,0,0,1-.7-1.57l5.26-13.65a1.22,1.22,0,0,1,2.27.87Zm3-8.64-.75,2.35a1.23,1.23,0,0,1-1.16.85,1.26,1.26,0,0,1-.38-.06A1.21,1.21,0,0,1,15.8,25l.75-2.35a1.22,1.22,0,1,1,2.32.74Z"/></g></g></g></svg>